{"title":"Young.Frankenstein.1974.(ExtendedCutXXL).BR+DVD.720p.x264.AC3.[F","uid":10493846,"size":9487198730,"categoryP":"video","categoryS":"hd___movies","magnet":"?xt=urn:btih:fcbce639b77ab0660f508fd7c2eb3f41e3d67fa1&amp;dn=Young.Frankenstein.1974.%28ExtendedCutXXL%29.BR%2BDVD.720p.x264.AC3.%5BF&amp;tr=udp%3A%2F%2Ftracker.openbittorrent.com%3A80&amp;tr=udp%3A%2F%2Fopen.demonii.com%3A1337&amp;tr=udp%3A%2F%2Ftracker.coppersurfer.tk%3A6969&amp;tr=udp%3A%2F%2Fexodus.desync.com%3A6969","seeders":1,"leechers":0,"uploader":"HDmEntEs","files":-1,"time":1404577699,"description":"The scariest comedy of all time! \n\n(deleted scenes + outtakes incl.)\n\n\nYoung.Frankenstein.1974.(ExtendedCutXXL).BR+DVD.720p.x264.AC3.[FrOnkY].mkv\n\nFormat                                   : Matroska\nFormat version                           : Version 4 / Version 2\nFile size                                : 8.84 GiB\nDuration                                 : 2h 8mn\nOverall bit rate                         : 9 867 Kbps\nWriting application                      : mkvmerge v6.4.1 ('Omega Point') built on Sep 16 2013 22:05:10\nWriting library                          : libebml v1.3.0 + libmatroska v1.4.1\nAttachment                               : Yes / Yes\n\nVideo\nID                                       : 1\nFormat                                   : AVC\nFormat/Info                              : Advanced Video Codec\nFormat profile                           : &lt;a class=&quot;__cf_email__&quot; href=&quot;/cdn-cgi/l/email-protection&quot; data-cfemail=&quot;9cd4f5fbf4dcd0a8b2ad&quot;&gt;[email&amp;#160;protected]&lt;/a&gt;&lt;script cf-hash='f9e31' type=&quot;text/javascript&quot;&gt;\n/* &lt;![CDATA[ */!function(){try{var t=&quot;currentScript&quot;in document?document.currentScript:function(){for(var t=document.getElementsByTagName(&quot;script&quot;),e=t.length;e--;)if(t[e].getAttribute(&quot;cf-hash&quot;))return t[e]}();if(t&amp;&amp;t.previousSibling){var e,r,n,i,c=t.previousSibling,a=c.getAttribute(&quot;data-cfemail&quot;);if(a){for(e=&quot;&quot;,r=parseInt(a.substr(0,2),16),n=2;a.length-n;n+=2)i=parseInt(a.substr(n,2),16)^r,e+=String.fromCharCode(i);e=document.createTextNode(e),c.parentNode.replaceChild(e,c)}}}catch(u){}}();/* ]]&gt; */&lt;/script&gt;\nFormat settings, CABAC                   : Yes\nFormat settings, ReFrames                : 9 frames\nCodec ID                                 : V_MPEG4/ISO/AVC\nDuration                                 : 2h 8mn\nBit rate                                 : 9 159 Kbps\nNominal bit rate                         : 9 999 Kbps\nWidth                                    : 1 280 pixels\nHeight                                   : 692 pixels\nDisplay aspect ratio                     : 1.85:1\nFrame rate mode                          : Constant\nFrame rate                               : 23.976 fps\nColor space                              : YUV\nChroma subsampling                       : 4:2:0\nBit depth                                : 8 bits\nScan type                                : Progressive\nBits/(Pixel*Frame)                       : 0.431\nStream size                              : 8.20 GiB (93%)\nWriting library                          : x264 core 133 r2334 a3ac64b\nLanguage                                 : English\nDefault                                  : Yes\nForced                                   : No\n\nAudio #1\nID                                       : 2\nFormat                                   : AC-3\nFormat/Info                              : Audio Coding 3\nMode extension                           : CM (complete main)\nFormat settings, Endianness              : Big\nCodec ID                                 : A_AC3\nDuration                                 : 2h 8mn\nBit rate mode                            : Constant\nBit rate                                 : 192 Kbps\nChannel(s)                               : 2 channels\nChannel positions                        : Front: L R\nSampling rate                            : 48.0 KHz\nBit depth                                : 16 bits\nStream size                              : 176 MiB (2%)\nLanguage                                 : Spanish\nDefault                                  : Yes\nForced                                   : No\n\nAudio #2\nID                                       : 3\nFormat                                   : AC-3\nFormat/Info                              : Audio Coding 3\nMode extension                           : CM (complete main)\nFormat settings, Endianness              : Big\nCodec ID                                 : A_AC3\nDuration                                 : 2h 8mn\nBit rate mode                            : Constant\nBit rate                                 : 320 Kbps\nChannel(s)                               : 2 channels\nChannel positions                        : Front: L R\nSampling rate                            : 48.0 KHz\nBit depth                                : 16 bits\nStream size                              : 293 MiB (3%)\nLanguage                                 : English\nDefault                                  : No\nForced                                   : No\n\nText #1\nID                                       : 4\nFormat                                   : UTF-8\nCodec ID                                 : S_TEXT/UTF8\nCodec ID/Info                            : UTF-8 Plain Text\nTitle                                    : for\nLanguage                                 : Spanish\nDefault                                  : Yes\nForced                                   : No\n\nText #2\nID                                       : 5\nFormat                                   : UTF-8\nCodec ID                                 : S_TEXT/UTF8\nCodec ID/Info                            : UTF-8 Plain Text\nLanguage                                 : Spanish\nDefault                                  : No\nForced                                   : No\n\nText #3\nID                                       : 6\nFormat                                   : UTF-8\nCodec ID                                 : S_TEXT/UTF8\nCodec ID/Info                            : UTF-8 Plain Text\nTitle                                    : com\nLanguage                                 : Spanish\nDefault                                  : No\nForced                                   : No\n\nText #4\nID                                       : 7\nFormat                                   : UTF-8\nCodec ID                                 : S_TEXT/UTF8\nCodec ID/Info                            : UTF-8 Plain Text\nLanguage                                 : English\nDefault                                  : No\nForced                                   : No\n\nMenu\n00:00:00.000                             : en:Chapter 01\n00:05:08.500                             : en:Chapter 02\n00:12:44.000                             : en:Chapter 03\n00:16:50.934                             : en:Chapter 04\n00:19:35.034                             : en:Chapter 05\n00:21:58.002                             : en:Chapter 06\n00:25:00.002                             : en:Chapter 07\n00:29:31.469                             : en:Chapter 08\n00:33:35.703                             : en:Chapter 09\n00:37:27.970                             : en:Chapter 10\n00:43:34.804                             : en:Chapter 11\n00:46:59.971                             : en:Chapter 12\n00:56:07.004                             : en:Chapter 13\n00:58:14.104                             : en:Chapter 14\n01:01:01.571                             : en:Chapter 15\n01:08:37.105                             : en:Chapter 16\n01:16:28.405                             : en:Chapter 17\n01:18:07.273                             : en:Chapter 18\n01:22:49.907                             : en:Chapter 19\n01:25:06.641                             : en:Chapter 20\n01:29:18.242                             : en:Chapter 21\n01:36:04.210                             : en:Chapter 22\n01:39:02.277                             : en:Chapter 23\n01:42:08.111                             : en:Chapter 24\n01:46:58.211                             : en:Chapter 25\n01:50:40.244                             : en:Chapter 26\n01:57:01.144                             : en:Chapter 27\n02:00:10.111                             : en:Chapter 28\n02:00:52.222                             : en:Chapter 29\n\n\nSCREENS\n &lt;a href=&quot;\nhttps://box.jisko.net/i/83b9b4ee.png&quot; rel=&quot;nofollow&quot; target=&quot;_NEW&quot;&gt;\nhttps://box.jisko.net/i/83b9b4ee.png&lt;/a&gt;\n &lt;a href=&quot;\nhttps://box.jisko.net/i/b7d10080.png&quot; rel=&quot;nofollow&quot; target=&quot;_NEW&quot;&gt;\nhttps://box.jisko.net/i/b7d10080.png&lt;/a&gt;\n &lt;a href=&quot;\nhttps://box.jisko.net/i/26d7b2bf.png&quot; rel=&quot;nofollow&quot; target=&quot;_NEW&quot;&gt;\nhttps://box.jisko.net/i/26d7b2bf.png&lt;/a&gt;","torrent":{"xt":"urn:btih:fcbce639b77ab0660f508fd7c2eb3f41e3d67fa1","amp;dn":"Young.Frankenstein.1974.%28ExtendedCutXXL%29.BR%2BDVD.720p.x264.AC3.%5BF","amp;tr":["udp%3A%2F%2Ftracker.openbittorrent.com%3A80","udp%3A%2F%2Fopen.demonii.com%3A1337","udp%3A%2F%2Ftracker.coppersurfer.tk%3A6969","udp%3A%2F%2Fexodus.desync.com%3A6969"],"infoHash":"fcbce639b77ab0660f508fd7c2eb3f41e3d67fa1","infoHashBuffer":{"type":"Buffer","data":[252,188,230,57,183,122,176,102,15,80,143,215,194,235,63,65,227,214,127,161]},"announce":[],"urlList":[]}}